<mxfile host="app.diagrams.net" modified="2024-02-27T14:47:33.932Z" agent="Mozilla/5.0 (Windows NT 10.0; Win64; x64) AppleWebKit/537.36 (KHTML, like Gecko) Chrome/122.0.0.0 Safari/537.36" etag="hYLoScr3CGKvh8mx94PC" version="23.0.2" type="github">
  <diagram name="初始用例图" id="rtrpxE1vS2OcSsSJXhOX">
    <mxGraphModel dx="1050" dy="522" grid="1" gridSize="10" guides="1" tooltips="1" connect="1" arrows="1" fold="1" page="1" pageScale="1" pageWidth="827" pageHeight="1169" math="0" shadow="0">
      <root>
        <mxCell id="0" />
        <mxCell id="1" parent="0" />
        <mxCell id="u_ll8zvJGMFNzH4_fjb6-5" style="edgeStyle=orthogonalEdgeStyle;rounded=0;orthogonalLoop=1;jettySize=auto;html=1;exitX=0.5;exitY=0;exitDx=0;exitDy=0;exitPerimeter=0;" edge="1" parent="1" source="u_ll8zvJGMFNzH4_fjb6-1" target="u_ll8zvJGMFNzH4_fjb6-4">
          <mxGeometry relative="1" as="geometry" />
        </mxCell>
        <mxCell id="u_ll8zvJGMFNzH4_fjb6-13" style="rounded=0;orthogonalLoop=1;jettySize=auto;html=1;" edge="1" parent="1" target="u_ll8zvJGMFNzH4_fjb6-10">
          <mxGeometry relative="1" as="geometry">
            <mxPoint x="170" y="330" as="sourcePoint" />
          </mxGeometry>
        </mxCell>
        <mxCell id="u_ll8zvJGMFNzH4_fjb6-17" style="edgeStyle=none;shape=connector;rounded=0;orthogonalLoop=1;jettySize=auto;html=1;entryX=0;entryY=0.5;entryDx=0;entryDy=0;labelBackgroundColor=default;strokeColor=default;align=center;verticalAlign=middle;fontFamily=Helvetica;fontSize=11;fontColor=default;endArrow=classic;" edge="1" parent="1" target="u_ll8zvJGMFNzH4_fjb6-11">
          <mxGeometry relative="1" as="geometry">
            <mxPoint x="170" y="340" as="sourcePoint" />
          </mxGeometry>
        </mxCell>
        <mxCell id="u_ll8zvJGMFNzH4_fjb6-18" style="edgeStyle=none;shape=connector;rounded=0;orthogonalLoop=1;jettySize=auto;html=1;entryX=0;entryY=0.5;entryDx=0;entryDy=0;labelBackgroundColor=default;strokeColor=default;align=center;verticalAlign=middle;fontFamily=Helvetica;fontSize=11;fontColor=default;endArrow=classic;" edge="1" parent="1" target="u_ll8zvJGMFNzH4_fjb6-12">
          <mxGeometry relative="1" as="geometry">
            <mxPoint x="170" y="350" as="sourcePoint" />
          </mxGeometry>
        </mxCell>
        <mxCell id="u_ll8zvJGMFNzH4_fjb6-1" value="用户" style="shape=umlActor;verticalLabelPosition=bottom;verticalAlign=top;html=1;outlineConnect=0;" vertex="1" parent="1">
          <mxGeometry x="120" y="320" width="40" height="60" as="geometry" />
        </mxCell>
        <mxCell id="u_ll8zvJGMFNzH4_fjb6-19" style="edgeStyle=none;shape=connector;rounded=0;orthogonalLoop=1;jettySize=auto;html=1;exitX=0;exitY=0.3333333333333333;exitDx=0;exitDy=0;exitPerimeter=0;entryX=0.5;entryY=0;entryDx=0;entryDy=0;labelBackgroundColor=default;strokeColor=default;align=center;verticalAlign=middle;fontFamily=Helvetica;fontSize=11;fontColor=default;endArrow=classic;" edge="1" parent="1" source="u_ll8zvJGMFNzH4_fjb6-3" target="u_ll8zvJGMFNzH4_fjb6-4">
          <mxGeometry relative="1" as="geometry" />
        </mxCell>
        <mxCell id="u_ll8zvJGMFNzH4_fjb6-3" value="管理员" style="shape=umlActor;verticalLabelPosition=bottom;verticalAlign=top;html=1;outlineConnect=0;" vertex="1" parent="1">
          <mxGeometry x="280" y="40" width="40" height="60" as="geometry" />
        </mxCell>
        <mxCell id="u_ll8zvJGMFNzH4_fjb6-4" value="登录模块" style="ellipse;whiteSpace=wrap;html=1;" vertex="1" parent="1">
          <mxGeometry x="80" y="190" width="120" height="50" as="geometry" />
        </mxCell>
        <mxCell id="u_ll8zvJGMFNzH4_fjb6-10" value="注册模块" style="ellipse;whiteSpace=wrap;html=1;" vertex="1" parent="1">
          <mxGeometry x="320" y="270" width="120" height="50" as="geometry" />
        </mxCell>
        <mxCell id="u_ll8zvJGMFNzH4_fjb6-11" value="学习模块" style="ellipse;whiteSpace=wrap;html=1;" vertex="1" parent="1">
          <mxGeometry x="320" y="340" width="120" height="50" as="geometry" />
        </mxCell>
        <mxCell id="u_ll8zvJGMFNzH4_fjb6-12" value="闯关模块" style="ellipse;whiteSpace=wrap;html=1;" vertex="1" parent="1">
          <mxGeometry x="320" y="410" width="120" height="50" as="geometry" />
        </mxCell>
      </root>
    </mxGraphModel>
  </diagram>
</mxfile>
